STARTFONT 2.1
COMMENT
COMMENT Shinonome 14dot font for JISX 0201, 1976
COMMENT
COMMENT The original is 7x14-JISX0201.1976-0.bdf. (Public Domain)
COMMENT
COMMENT Modified and Maintained by /efont/.
COMMENT
COMMENT (c) /efont/ -- Efont Open Laboratory 2001
COMMENT http://openlab.ring.gr.jp/efont/
COMMENT
FONT -Shinonome-Gothic-Bold-R-Normal--14-130-75-75-C-70-JISX0201.1976-0
SIZE 14 75 75
FONTBOUNDINGBOX 7 14 0 -2
STARTPROPERTIES 24
FONTNAME_REGISTRY ""
FOUNDRY "Shinonome"
FAMILY_NAME "Gothic"
WEIGHT_NAME "Bold"
SLANT "R"
SETWIDTH_NAME "Normal"
ADD_STYLE_NAME ""
PIXEL_SIZE 14
POINT_SIZE 130
RESOLUTION_X 75
RESOLUTION_Y 75
SPACING "C"
AVERAGE_WIDTH 70
CHARSET_REGISTRY "JISX0201.1976"
CHARSET_ENCODING "0"
COPYRIGHT "Public domain font. Share and enjoy."
CAP_HEIGHT 10
X_HEIGHT 7
WEIGHT 10
QUAD_WIDTH 7
DEFAULT_CHAR 0
FONT_DESCENT 2
FONT_ASCENT 12
_XMBDFED_INFO "Edited with xmbdfed 4.5."
ENDPROPERTIES
CHARS 221
STARTCHAR    1
ENCODING 1
SWIDTH 960 0
DWIDTH 7 0
BBX 7 14 0 -2
BITMAP
00
00
38
38
7c
7c
fe
fe
7c
7c
38
38
00
00
ENDCHAR
STARTCHAR    2
ENCODING 2
SWIDTH 960 0
DWIDTH 7 0
BBX 7 14 0 -2
BITMAP
6a
d5
6a
d5
6a
d5
6a
d5
6a
d5
6a
d5
6a
d5
ENDCHAR
STARTCHAR    3
ENCODING 3
SWIDTH 960 0
DWIDTH 7 0
BBX 7 14 0 -2
BITMAP
00
d8
d8
f8
d8
d8
00
7e
18
18
18
18
00
00
ENDCHAR
STARTCHAR    4
ENCODING 4
SWIDTH 960 0
DWIDTH 7 0
BBX 7 14 0 -2
BITMAP
00
f0
c0
c0
f0
c0
de
d8
18
1e
18
18
18
00
ENDCHAR
STARTCHAR    5
ENCODING 5
SWIDTH 960 0
DWIDTH 7 0
BBX 7 14 0 -2
BITMAP
00
78
c0
c0
c0
78
00
3c
36
36
3c
36
36
00
ENDCHAR
STARTCHAR    6
ENCODING 6
SWIDTH 960 0
DWIDTH 7 0
BBX 7 14 0 -2
BITMAP
00
c0
c0
c0
c0
f8
00
3e
30
3c
30
30
00
00
ENDCHAR
STARTCHAR    7
ENCODING 7
SWIDTH 960 0
DWIDTH 7 0
BBX 7 14 0 -2
BITMAP
00
38
6c
6c
38
00
00
00
00
00
00
00
00
00
ENDCHAR
STARTCHAR    8
ENCODING 8
SWIDTH 960 0
DWIDTH 7 0
BBX 7 14 0 -2
BITMAP
00
00
00
00
00
00
18
18
7e
18
18
7e
00
00
ENDCHAR
STARTCHAR    9
ENCODING 9
SWIDTH 960 0
DWIDTH 7 0
BBX 7 14 0 -2
BITMAP
00
00
d8
e8
d8
d8
d8
30
30
30
30
3e
00
00
ENDCHAR
STARTCHAR    a
ENCODING 10
SWIDTH 960 0
DWIDTH 7 0
BBX 7 14 0 -2
BITMAP
00
cc
cc
cc
68
30
00
7e
18
18
18
18
18
00
ENDCHAR
STARTCHAR    b
ENCODING 11
SWIDTH 960 0
DWIDTH 7 0
BBX 7 14 0 -2
BITMAP
18
18
18
18
18
18
18
f8
00
00
00
00
00
00
ENDCHAR
STARTCHAR    c
ENCODING 12
SWIDTH 960 0
DWIDTH 7 0
BBX 7 14 0 -2
BITMAP
00
00
00
00
00
00
00
f8
18
18
18
18
18
18
ENDCHAR
STARTCHAR    d
ENCODING 13
SWIDTH 960 0
DWIDTH 7 0
BBX 7 14 0 -2
BITMAP
00
00
00
00
00
00
00
1f
18
18
18
18
18
18
ENDCHAR
STARTCHAR    e
ENCODING 14
SWIDTH 960 0
DWIDTH 7 0
BBX 7 14 0 -2
BITMAP
18
18
18
18
18
18
18
1f
00
00
00
00
00
00
ENDCHAR
STARTCHAR    f
ENCODING 15
SWIDTH 960 0
DWIDTH 7 0
BBX 7 14 0 -2
BITMAP
18
18
18
18
18
18
18
ff
18
18
18
18
18
18
ENDCHAR
STARTCHAR 0x10
ENCODING 16
SWIDTH 960 0
DWIDTH 7 0
BBX 7 14 0 -2
BITMAP
00
ff
00
00
00
00
00
00
00
00
00
00
00
00
ENDCHAR
STARTCHAR 0x11
ENCODING 17
SWIDTH 960 0
DWIDTH 7 0
BBX 7 14 0 -2
BITMAP
00
00
00
00
ff
00
00
00
00
00
00
00
00
00
ENDCHAR
STARTCHAR   12
ENCODING 18
SWIDTH 960 0
DWIDTH 7 0
BBX 7 14 0 -2
BITMAP
00
00
00
00
00
00
00
ff
00
00
00
00
00
00
ENDCHAR
STARTCHAR 0x13
ENCODING 19
SWIDTH 960 0
DWIDTH 7 0
BBX 7 14 0 -2
BITMAP
00
00
00
00
00
00
00
00
00
00
ff
00
00
00
ENDCHAR
STARTCHAR 0x14
ENCODING 20
SWIDTH 960 0
DWIDTH 7 0
BBX 7 14 0 -2
BITMAP
00
00
00
00
00
00
00
00
00
00
00
00
00
ff
ENDCHAR
STARTCHAR   15
ENCODING 21
SWIDTH 960 0
DWIDTH 7 0
BBX 7 14 0 -2
BITMAP
18
18
18
18
18
18
18
1f
18
18
18
18
18
18
ENDCHAR
STARTCHAR   16
ENCODING 22
SWIDTH 960 0
DWIDTH 7 0
BBX 7 14 0 -2
BITMAP
18
18
18
18
18
18
18
f8
18
18
18
18
18
18
ENDCHAR
STARTCHAR   17
ENCODING 23
SWIDTH 960 0
DWIDTH 7 0
BBX 7 14 0 -2
BITMAP
18
18
18
18
18
18
18
ff
00
00
00
00
00
00
ENDCHAR
STARTCHAR   18
ENCODING 24
SWIDTH 960 0
DWIDTH 7 0
BBX 7 14 0 -2
BITMAP
00
00
00
00
00
00
00
ff
18
18
18
18
18
18
ENDCHAR
STARTCHAR   19
ENCODING 25
SWIDTH 960 0
DWIDTH 7 0
BBX 7 14 0 -2
BITMAP
18
18
18
18
18
18
18
18
18
18
18
18
18
18
ENDCHAR
STARTCHAR   1a
ENCODING 26
SWIDTH 960 0
DWIDTH 7 0
BBX 7 14 0 -2
BITMAP
00
00
00
00
0e
38
e0
38
0e
00
fe
00
00
00
ENDCHAR
STARTCHAR   1b
ENCODING 27
SWIDTH 960 0
DWIDTH 7 0
BBX 7 14 0 -2
BITMAP
00
00
00
00
e0
38
0e
38
e0
00
fe
00
00
00
ENDCHAR
STARTCHAR   1c
ENCODING 28
SWIDTH 960 0
DWIDTH 7 0
BBX 7 14 0 -2
BITMAP
00
00
00
00
00
fe
6c
6c
6c
6c
6c
cc
00
00
ENDCHAR
STARTCHAR   1d
ENCODING 29
SWIDTH 960 0
DWIDTH 7 0
BBX 7 14 0 -2
BITMAP
00
00
00
0c
0c
fe
18
18
fe
30
30
00
00
00
ENDCHAR
STARTCHAR   1e
ENCODING 30
SWIDTH 960 0
DWIDTH 7 0
BBX 7 14 0 -2
BITMAP
00
00
00
1c
36
30
30
7c
30
30
7c
76
00
00
ENDCHAR
STARTCHAR   1f
ENCODING 31
SWIDTH 960 0
DWIDTH 7 0
BBX 7 14 0 -2
BITMAP
00
00
00
00
00
00
38
38
00
00
00
00
00
00
ENDCHAR
STARTCHAR   20
ENCODING 32
SWIDTH 960 0
DWIDTH 7 0
BBX 7 14 0 -2
BITMAP
00
00
00
00
00
00
00
00
00
00
00
00
00
00
ENDCHAR
STARTCHAR   21
ENCODING 33
SWIDTH 960 0
DWIDTH 7 0
BBX 7 14 0 -2
BITMAP
00
00
18
18
18
18
18
18
18
00
18
18
00
00
ENDCHAR
STARTCHAR   22
ENCODING 34
SWIDTH 960 0
DWIDTH 7 0
BBX 7 14 0 -2
BITMAP
00
76
36
36
6c
00
00
00
00
00
00
00
00
00
ENDCHAR
STARTCHAR   23
ENCODING 35
SWIDTH 960 0
DWIDTH 7 0
BBX 7 14 0 -2
BITMAP
00
00
34
34
34
7e
34
34
7e
34
34
34
00
00
ENDCHAR
STARTCHAR   24
ENCODING 36
SWIDTH 960 0
DWIDTH 7 0
BBX 7 14 0 -2
BITMAP
00
00
18
7c
da
da
68
3c
1a
da
da
7c
18
00
ENDCHAR
STARTCHAR   25
ENCODING 37
SWIDTH 960 0
DWIDTH 7 0
BBX 7 14 0 -2
BITMAP
00
00
76
da
dc
78
18
30
3c
76
d6
dc
00
00
ENDCHAR
STARTCHAR   26
ENCODING 38
SWIDTH 960 0
DWIDTH 7 0
BBX 7 14 0 -2
BITMAP
00
00
38
6c
6c
6c
38
76
da
cc
dc
76
00
00
ENDCHAR
STARTCHAR   27
ENCODING 39
SWIDTH 960 0
DWIDTH 7 0
BBX 7 14 0 -2
BITMAP
00
38
18
18
30
00
00
00
00
00
00
00
00
00
ENDCHAR
STARTCHAR   28
ENCODING 40
SWIDTH 960 0
DWIDTH 7 0
BBX 7 14 0 -2
BITMAP
00
06
0c
18
18
30
30
30
30
30
18
18
0c
06
ENDCHAR
STARTCHAR   29
ENCODING 41
SWIDTH 960 0
DWIDTH 7 0
BBX 7 14 0 -2
BITMAP
00
60
30
18
18
0c
0c
0c
0c
0c
18
18
30
60
ENDCHAR
STARTCHAR   2a
ENCODING 42
SWIDTH 960 0
DWIDTH 7 0
BBX 7 14 0 -2
BITMAP
00
00
00
00
18
6a
3c
18
3c
6a
18
00
00
00
ENDCHAR
STARTCHAR   2b
ENCODING 43
SWIDTH 960 0
DWIDTH 7 0
BBX 7 14 0 -2
BITMAP
00
00
00
00
18
18
18
7e
18
18
18
00
00
00
ENDCHAR
STARTCHAR   2c
ENCODING 44
SWIDTH 960 0
DWIDTH 7 0
BBX 7 14 0 -2
BITMAP
00
00
00
00
00
00
00
00
00
00
38
18
18
30
ENDCHAR
STARTCHAR   2d
ENCODING 45
SWIDTH 960 0
DWIDTH 7 0
BBX 7 14 0 -2
BITMAP
00
00
00
00
00
00
00
7e
00
00
00
00
00
00
ENDCHAR
STARTCHAR   2e
ENCODING 46
SWIDTH 960 0
DWIDTH 7 0
BBX 7 14 0 -2
BITMAP
00
00
00
00
00
00
00
00
00
00
38
38
00
00
ENDCHAR
STARTCHAR   2f
ENCODING 47
SWIDTH 960 0
DWIDTH 7 0
BBX 7 14 0 -2
BITMAP
00
06
06
0c
0c
18
18
18
30
30
60
60
c0
c0
ENDCHAR
STARTCHAR   30
ENCODING 48
SWIDTH 960 0
DWIDTH 7 0
BBX 7 14 0 -2
BITMAP
00
00
38
6c
c6
c6
c6
c6
c6
c6
6c
38
00
00
ENDCHAR
STARTCHAR   31
ENCODING 49
SWIDTH 960 0
DWIDTH 7 0
BBX 7 14 0 -2
BITMAP
00
00
18
38
68
18
18
18
18
18
18
7e
00
00
ENDCHAR
STARTCHAR   32
ENCODING 50
SWIDTH 960 0
DWIDTH 7 0
BBX 7 14 0 -2
BITMAP
00
00
7c
c6
c6
06
0c
0c
18
30
60
fe
00
00
ENDCHAR
STARTCHAR   33
ENCODING 51
SWIDTH 960 0
DWIDTH 7 0
BBX 7 14 0 -2
BITMAP
00
00
fe
06
0c
18
3c
06
06
c6
c6
7c
00
00
ENDCHAR
STARTCHAR   34
ENCODING 52
SWIDTH 960 0
DWIDTH 7 0
BBX 7 14 0 -2
BITMAP
00
00
0c
1c
34
34
6c
6c
cc
fe
0c
0c
00
00
ENDCHAR
STARTCHAR   35
ENCODING 53
SWIDTH 960 0
DWIDTH 7 0
BBX 7 14 0 -2
BITMAP
00
00
fe
c0
c0
fc
c6
06
06
c6
c6
7c
00
00
ENDCHAR
STARTCHAR   36
ENCODING 54
SWIDTH 960 0
DWIDTH 7 0
BBX 7 14 0 -2
BITMAP
00
00
3c
60
c0
c0
dc
e6
c6
c6
c6
7c
00
00
ENDCHAR
STARTCHAR   37
ENCODING 55
SWIDTH 960 0
DWIDTH 7 0
BBX 7 14 0 -2
BITMAP
00
00
fe
06
0c
0c
18
18
30
30
60
60
00
00
ENDCHAR
STARTCHAR   38
ENCODING 56
SWIDTH 960 0
DWIDTH 7 0
BBX 7 14 0 -2
BITMAP
00
00
7c
c6
c6
6c
38
6c
c6
c6
c6
7c
00
00
ENDCHAR
STARTCHAR   39
ENCODING 57
SWIDTH 960 0
DWIDTH 7 0
BBX 7 14 0 -2
BITMAP
00
00
7c
c6
c6
c6
ce
7a
06
c6
cc
78
00
00
ENDCHAR
STARTCHAR   3a
ENCODING 58
SWIDTH 960 0
DWIDTH 7 0
BBX 7 14 0 -2
BITMAP
00
00
00
00
00
38
38
00
00
38
38
00
00
00
ENDCHAR
STARTCHAR   3b
ENCODING 59
SWIDTH 960 0
DWIDTH 7 0
BBX 7 14 0 -2
BITMAP
00
00
00
00
00
38
38
00
00
38
18
18
30
00
ENDCHAR
STARTCHAR   3c
ENCODING 60
SWIDTH 960 0
DWIDTH 7 0
BBX 7 14 0 -2
BITMAP
00
00
00
06
0c
18
30
60
30
18
0c
06
00
00
ENDCHAR
STARTCHAR   3d
ENCODING 61
SWIDTH 960 0
DWIDTH 7 0
BBX 7 14 0 -2
BITMAP
00
00
00
00
00
fe
00
00
fe
00
00
00
00
00
ENDCHAR
STARTCHAR   3e
ENCODING 62
SWIDTH 960 0
DWIDTH 7 0
BBX 7 14 0 -2
BITMAP
00
00
00
60
30
18
0c
06
0c
18
30
60
00
00
ENDCHAR
STARTCHAR   3f
ENCODING 63
SWIDTH 960 0
DWIDTH 7 0
BBX 7 14 0 -2
BITMAP
00
00
7c
c6
c6
0c
18
18
18
00
18
18
00
00
ENDCHAR
STARTCHAR   40
ENCODING 64
SWIDTH 960 0
DWIDTH 7 0
BBX 7 14 0 -2
BITMAP
00
00
3c
66
de
d6
d6
d6
d6
de
60
3e
00
00
ENDCHAR
STARTCHAR   41
ENCODING 65
SWIDTH 960 0
DWIDTH 7 0
BBX 7 14 0 -2
BITMAP
00
00
38
38
6c
6c
6c
7c
c6
c6
c6
c6
00
00
ENDCHAR
STARTCHAR   42
ENCODING 66
SWIDTH 960 0
DWIDTH 7 0
BBX 7 14 0 -2
BITMAP
00
00
f8
cc
cc
cc
f8
cc
c6
c6
cc
f8
00
00
ENDCHAR
STARTCHAR   43
ENCODING 67
SWIDTH 960 0
DWIDTH 7 0
BBX 7 14 0 -2
BITMAP
00
00
3c
66
c6
c0
c0
c0
c0
c6
66
3c
00
00
ENDCHAR
STARTCHAR   44
ENCODING 68
SWIDTH 960 0
DWIDTH 7 0
BBX 7 14 0 -2
BITMAP
00
00
f8
cc
c6
c6
c6
c6
c6
c6
cc
f8
00
00
ENDCHAR
STARTCHAR   45
ENCODING 69
SWIDTH 960 0
DWIDTH 7 0
BBX 7 14 0 -2
BITMAP
00
00
fe
c0
c0
c0
f8
c0
c0
c0
c0
fe
00
00
ENDCHAR
STARTCHAR   46
ENCODING 70
SWIDTH 960 0
DWIDTH 7 0
BBX 7 14 0 -2
BITMAP
00
00
fe
c0
c0
c0
f8
c0
c0
c0
c0
c0
00
00
ENDCHAR
STARTCHAR   47
ENCODING 71
SWIDTH 960 0
DWIDTH 7 0
BBX 7 14 0 -2
BITMAP
00
00
3c
66
c6
c0
c0
de
c6
c6
6e
3a
00
00
ENDCHAR
STARTCHAR   48
ENCODING 72
SWIDTH 960 0
DWIDTH 7 0
BBX 7 14 0 -2
BITMAP
00
00
c6
c6
c6
c6
fe
c6
c6
c6
c6
c6
00
00
ENDCHAR
STARTCHAR   49
ENCODING 73
SWIDTH 960 0
DWIDTH 7 0
BBX 7 14 0 -2
BITMAP
00
00
3c
18
18
18
18
18
18
18
18
3c
00
00
ENDCHAR
STARTCHAR   4a
ENCODING 74
SWIDTH 960 0
DWIDTH 7 0
BBX 7 14 0 -2
BITMAP
00
00
0c
0c
0c
0c
0c
0c
0c
cc
cc
78
00
00
ENDCHAR
STARTCHAR   4b
ENCODING 75
SWIDTH 960 0
DWIDTH 7 0
BBX 7 14 0 -2
BITMAP
00
00
c6
cc
d8
d8
d0
e8
d8
cc
cc
c6
00
00
ENDCHAR
STARTCHAR   4c
ENCODING 76
SWIDTH 960 0
DWIDTH 7 0
BBX 7 14 0 -2
BITMAP
00
00
c0
c0
c0
c0
c0
c0
c0
c0
c0
fe
00
00
ENDCHAR
STARTCHAR   4d
ENCODING 77
SWIDTH 960 0
DWIDTH 7 0
BBX 7 14 0 -2
BITMAP
00
00
c6
ee
ee
da
da
c6
c6
c6
c6
c6
00
00
ENDCHAR
STARTCHAR   4e
ENCODING 78
SWIDTH 960 0
DWIDTH 7 0
BBX 7 14 0 -2
BITMAP
00
00
c6
c6
e6
e6
d6
da
ce
ce
c6
c6
00
00
ENDCHAR
STARTCHAR   4f
ENCODING 79
SWIDTH 960 0
DWIDTH 7 0
BBX 7 14 0 -2
BITMAP
00
00
7c
c6
c6
c6
c6
c6
c6
c6
c6
7c
00
00
ENDCHAR
STARTCHAR   50
ENCODING 80
SWIDTH 960 0
DWIDTH 7 0
BBX 7 14 0 -2
BITMAP
00
00
fc
c6
c6
c6
c6
fc
c0
c0
c0
c0
00
00
ENDCHAR
STARTCHAR   51
ENCODING 81
SWIDTH 960 0
DWIDTH 7 0
BBX 7 14 0 -2
BITMAP
00
00
7c
c6
c6
c6
c6
c6
f6
da
ce
7c
0c
06
ENDCHAR
STARTCHAR   52
ENCODING 82
SWIDTH 960 0
DWIDTH 7 0
BBX 7 14 0 -2
BITMAP
00
00
fc
c6
c6
c6
c6
fc
d8
cc
c6
c6
00
00
ENDCHAR
STARTCHAR   53
ENCODING 83
SWIDTH 960 0
DWIDTH 7 0
BBX 7 14 0 -2
BITMAP
00
00
7c
c6
c6
c0
70
1c
06
c6
c6
7c
00
00
ENDCHAR
STARTCHAR   54
ENCODING 84
SWIDTH 960 0
DWIDTH 7 0
BBX 7 14 0 -2
BITMAP
00
00
ff
18
18
18
18
18
18
18
18
18
00
00
ENDCHAR
STARTCHAR   55
ENCODING 85
SWIDTH 960 0
DWIDTH 7 0
BBX 7 14 0 -2
BITMAP
00
00
c6
c6
c6
c6
c6
c6
c6
c6
c6
7c
00
00
ENDCHAR
STARTCHAR   56
ENCODING 86
SWIDTH 960 0
DWIDTH 7 0
BBX 7 14 0 -2
BITMAP
00
00
c6
c6
c6
c6
6c
6c
6c
38
38
38
00
00
ENDCHAR
STARTCHAR   57
ENCODING 87
SWIDTH 960 0
DWIDTH 7 0
BBX 7 14 0 -2
BITMAP
00
00
66
66
66
6a
6a
6a
6a
6a
34
34
00
00
ENDCHAR
STARTCHAR   58
ENCODING 88
SWIDTH 960 0
DWIDTH 7 0
BBX 7 14 0 -2
BITMAP
00
00
c6
c6
6c
6c
38
38
6c
6c
c6
c6
00
00
ENDCHAR
STARTCHAR   59
ENCODING 89
SWIDTH 960 0
DWIDTH 7 0
BBX 7 14 0 -2
BITMAP
00
00
66
66
66
34
34
18
18
18
18
18
00
00
ENDCHAR
STARTCHAR   5a
ENCODING 90
SWIDTH 960 0
DWIDTH 7 0
BBX 7 14 0 -2
BITMAP
00
00
fe
06
0c
18
18
30
60
60
c0
fe
00
00
ENDCHAR
STARTCHAR   5b
ENCODING 91
SWIDTH 960 0
DWIDTH 7 0
BBX 7 14 0 -2
BITMAP
00
3e
30
30
30
30
30
30
30
30
30
30
30
3e
ENDCHAR
STARTCHAR   5c
ENCODING 92
SWIDTH 480 0
DWIDTH 7 0
BBX 7 14 0 -2
BITMAP
00
00
66
34
34
18
7e
18
7e
18
18
18
00
00
ENDCHAR
STARTCHAR   5d
ENCODING 93
SWIDTH 960 0
DWIDTH 7 0
BBX 7 14 0 -2
BITMAP
00
7c
0c
0c
0c
0c
0c
0c
0c
0c
0c
0c
0c
7c
ENDCHAR
STARTCHAR   5e
ENCODING 94
SWIDTH 960 0
DWIDTH 7 0
BBX 7 14 0 -2
BITMAP
00
38
6c
c6
00
00
00
00
00
00
00
00
00
00
ENDCHAR
STARTCHAR   5f
ENCODING 95
SWIDTH 960 0
DWIDTH 7 0
BBX 7 14 0 -2
BITMAP
00
00
00
00
00
00
00
00
00
00
00
00
00
fe
ENDCHAR
STARTCHAR   60
ENCODING 96
SWIDTH 960 0
DWIDTH 7 0
BBX 7 14 0 -2
BITMAP
00
38
30
30
18
00
00
00
00
00
00
00
00
00
ENDCHAR
STARTCHAR   61
ENCODING 97
SWIDTH 960 0
DWIDTH 7 0
BBX 7 14 0 -2
BITMAP
00
00
00
00
00
7c
c6
06
7e
c6
c6
7e
00
00
ENDCHAR
STARTCHAR   62
ENCODING 98
SWIDTH 960 0
DWIDTH 7 0
BBX 7 14 0 -2
BITMAP
00
00
c0
c0
c0
dc
e6
c6
c6
c6
e6
dc
00
00
ENDCHAR
STARTCHAR   63
ENCODING 99
SWIDTH 960 0
DWIDTH 7 0
BBX 7 14 0 -2
BITMAP
00
00
00
00
00
7c
c6
c0
c0
c0
c6
7c
00
00
ENDCHAR
STARTCHAR   64
ENCODING 100
SWIDTH 960 0
DWIDTH 7 0
BBX 7 14 0 -2
BITMAP
00
00
06
06
06
7a
ce
c6
c6
c6
ce
7a
00
00
ENDCHAR
STARTCHAR   65
ENCODING 101
SWIDTH 960 0
DWIDTH 7 0
BBX 7 14 0 -2
BITMAP
00
00
00
00
00
7c
c6
c6
fe
c0
c6
7c
00
00
ENDCHAR
STARTCHAR   66
ENCODING 102
SWIDTH 960 0
DWIDTH 7 0
BBX 7 14 0 -2
BITMAP
00
00
1c
36
30
30
fc
30
30
30
30
30
00
00
ENDCHAR
STARTCHAR   67
ENCODING 103
SWIDTH 960 0
DWIDTH 7 0
BBX 7 14 0 -2
BITMAP
00
00
00
00
00
7a
cc
cc
cc
78
60
dc
c6
7c
ENDCHAR
STARTCHAR   68
ENCODING 104
SWIDTH 960 0
DWIDTH 7 0
BBX 7 14 0 -2
BITMAP
00
00
c0
c0
c0
dc
e6
c6
c6
c6
c6
c6
00
00
ENDCHAR
STARTCHAR   69
ENCODING 105
SWIDTH 960 0
DWIDTH 7 0
BBX 7 14 0 -2
BITMAP
00
00
18
18
00
38
18
18
18
18
18
18
00
00
ENDCHAR
STARTCHAR   6a
ENCODING 106
SWIDTH 960 0
DWIDTH 7 0
BBX 7 14 0 -2
BITMAP
00
00
0c
0c
00
1c
0c
0c
0c
0c
0c
0c
18
70
ENDCHAR
STARTCHAR   6b
ENCODING 107
SWIDTH 960 0
DWIDTH 7 0
BBX 7 14 0 -2
BITMAP
00
00
c0
c0
c0
cc
d8
d0
f0
d8
cc
c6
00
00
ENDCHAR
STARTCHAR   6c
ENCODING 108
SWIDTH 960 0
DWIDTH 7 0
BBX 7 14 0 -2
BITMAP
00
00
38
18
18
18
18
18
18
18
18
18
00
00
ENDCHAR
STARTCHAR   6d
ENCODING 109
SWIDTH 960 0
DWIDTH 7 0
BBX 7 14 0 -2
BITMAP
00
00
00
00
00
74
6a
6a
6a
6a
6a
66
00
00
ENDCHAR
STARTCHAR   6e
ENCODING 110
SWIDTH 960 0
DWIDTH 7 0
BBX 7 14 0 -2
BITMAP
00
00
00
00
00
dc
e6
c6
c6
c6
c6
c6
00
00
ENDCHAR
STARTCHAR   6f
ENCODING 111
SWIDTH 960 0
DWIDTH 7 0
BBX 7 14 0 -2
BITMAP
00
00
00
00
00
7c
c6
c6
c6
c6
c6
7c
00
00
ENDCHAR
STARTCHAR   70
ENCODING 112
SWIDTH 960 0
DWIDTH 7 0
BBX 7 14 0 -2
BITMAP
00
00
00
00
00
dc
e6
c6
c6
c6
e6
dc
c0
c0
ENDCHAR
STARTCHAR   71
ENCODING 113
SWIDTH 960 0
DWIDTH 7 0
BBX 7 14 0 -2
BITMAP
00
00
00
00
00
7a
ce
c6
c6
c6
ce
7a
06
06
ENDCHAR
STARTCHAR   72
ENCODING 114
SWIDTH 960 0
DWIDTH 7 0
BBX 7 14 0 -2
BITMAP
00
00
00
00
00
dc
e6
c6
c0
c0
c0
c0
00
00
ENDCHAR
STARTCHAR   73
ENCODING 115
SWIDTH 960 0
DWIDTH 7 0
BBX 7 14 0 -2
BITMAP
00
00
00
00
00
7c
c6
60
38
0c
c6
7c
00
00
ENDCHAR
STARTCHAR   74
ENCODING 116
SWIDTH 960 0
DWIDTH 7 0
BBX 7 14 0 -2
BITMAP
00
00
30
30
30
fc
30
30
30
30
36
1c
00
00
ENDCHAR
STARTCHAR   75
ENCODING 117
SWIDTH 960 0
DWIDTH 7 0
BBX 7 14 0 -2
BITMAP
00
00
00
00
00
c6
c6
c6
c6
c6
ce
7a
00
00
ENDCHAR
STARTCHAR   76
ENCODING 118
SWIDTH 960 0
DWIDTH 7 0
BBX 7 14 0 -2
BITMAP
00
00
00
00
00
66
66
66
34
34
18
18
00
00
ENDCHAR
STARTCHAR   77
ENCODING 119
SWIDTH 960 0
DWIDTH 7 0
BBX 7 14 0 -2
BITMAP
00
00
00
00
00
66
66
6a
6a
6a
34
34
00
00
ENDCHAR
STARTCHAR   78
ENCODING 120
SWIDTH 960 0
DWIDTH 7 0
BBX 7 14 0 -2
BITMAP
00
00
00
00
00
c6
6c
6c
38
6c
6c
c6
00
00
ENDCHAR
STARTCHAR   79
ENCODING 121
SWIDTH 960 0
DWIDTH 7 0
BBX 7 14 0 -2
BITMAP
00
00
00
00
00
c6
c6
6c
6c
38
18
30
30
e0
ENDCHAR
STARTCHAR   7a
ENCODING 122
SWIDTH 960 0
DWIDTH 7 0
BBX 7 14 0 -2
BITMAP
00
00
00
00
00
fe
0c
18
30
30
60
fe
00
00
ENDCHAR
STARTCHAR   7b
ENCODING 123
SWIDTH 960 0
DWIDTH 7 0
BBX 7 14 0 -2
BITMAP
00
0e
18
18
18
18
18
30
18
18
18
18
18
0e
ENDCHAR
STARTCHAR   7c
ENCODING 124
SWIDTH 960 0
DWIDTH 7 0
BBX 7 14 0 -2
BITMAP
00
18
18
18
18
18
18
18
18
18
18
18
18
18
ENDCHAR
STARTCHAR   7d
ENCODING 125
SWIDTH 960 0
DWIDTH 7 0
BBX 7 14 0 -2
BITMAP
00
70
18
18
18
18
18
0c
18
18
18
18
18
70
ENDCHAR
STARTCHAR   7e
ENCODING 126
SWIDTH 480 0
DWIDTH 7 0
BBX 7 14 0 -2
BITMAP
ff
00
00
00
00
00
00
00
00
00
00
00
00
00
ENDCHAR
STARTCHAR   a1
ENCODING 161
SWIDTH 480 0
DWIDTH 7 0
BBX 7 14 0 -2
BITMAP
00
00
00
00
00
00
00
00
30
68
68
30
00
00
ENDCHAR
STARTCHAR   a2
ENCODING 162
SWIDTH 480 0
DWIDTH 7 0
BBX 7 14 0 -2
BITMAP
00
3e
30
30
30
30
30
30
30
30
00
00
00
00
ENDCHAR
STARTCHAR   a3
ENCODING 163
SWIDTH 480 0
DWIDTH 7 0
BBX 7 14 0 -2
BITMAP
00
00
00
00
18
18
18
18
18
18
18
18
f8
00
ENDCHAR
STARTCHAR   a4
ENCODING 164
SWIDTH 480 0
DWIDTH 7 0
BBX 7 14 0 -2
BITMAP
00
00
00
00
00
00
00
00
00
60
30
30
00
00
ENDCHAR
STARTCHAR   a5
ENCODING 165
SWIDTH 480 0
DWIDTH 7 0
BBX 7 14 0 -2
BITMAP
00
00
00
00
00
00
38
38
00
00
00
00
00
00
ENDCHAR
STARTCHAR   a6
ENCODING 166
SWIDTH 480 0
DWIDTH 7 0
BBX 7 14 0 -2
BITMAP
00
00
fe
06
06
fe
06
0c
0c
18
30
60
00
00
ENDCHAR
STARTCHAR   a7
ENCODING 167
SWIDTH 480 0
DWIDTH 7 0
BBX 7 14 0 -2
BITMAP
00
00
00
00
00
fe
06
1c
18
18
30
60
00
00
ENDCHAR
STARTCHAR   a8
ENCODING 168
SWIDTH 480 0
DWIDTH 7 0
BBX 7 14 0 -2
BITMAP
00
00
00
00
06
0c
18
38
e8
18
18
18
00
00
ENDCHAR
STARTCHAR   a9
ENCODING 169
SWIDTH 480 0
DWIDTH 7 0
BBX 7 14 0 -2
BITMAP
00
00
00
00
30
30
fe
c6
c6
0c
18
70
00
00
ENDCHAR
STARTCHAR   aa
ENCODING 170
SWIDTH 480 0
DWIDTH 7 0
BBX 7 14 0 -2
BITMAP
00
00
00
00
00
00
fc
30
30
30
30
fe
00
00
ENDCHAR
STARTCHAR   ab
ENCODING 171
SWIDTH 480 0
DWIDTH 7 0
BBX 7 14 0 -2
BITMAP
00
00
00
00
0c
0c
fe
1c
34
6c
cc
1c
00
00
ENDCHAR
STARTCHAR   ac
ENCODING 172
SWIDTH 480 0
DWIDTH 7 0
BBX 7 14 0 -2
BITMAP
00
00
00
00
60
60
7e
ec
38
30
30
30
00
00
ENDCHAR
STARTCHAR   ad
ENCODING 173
SWIDTH 480 0
DWIDTH 7 0
BBX 7 14 0 -2
BITMAP
00
00
00
00
00
00
78
18
18
18
fe
00
00
00
ENDCHAR
STARTCHAR   ae
ENCODING 174
SWIDTH 480 0
DWIDTH 7 0
BBX 7 14 0 -2
BITMAP
00
00
00
00
00
00
7e
06
3e
06
06
7e
00
00
ENDCHAR
STARTCHAR   af
ENCODING 175
SWIDTH 480 0
DWIDTH 7 0
BBX 7 14 0 -2
BITMAP
00
00
00
00
00
36
da
6a
6c
0c
18
30
00
00
ENDCHAR
STARTCHAR   b0
ENCODING 176
SWIDTH 480 0
DWIDTH 7 0
BBX 7 14 0 -2
BITMAP
00
00
00
00
00
00
fe
00
00
00
00
00
00
00
ENDCHAR
STARTCHAR   b1
ENCODING 177
SWIDTH 480 0
DWIDTH 7 0
BBX 7 14 0 -2
BITMAP
00
00
fe
06
1a
1c
18
18
18
30
30
60
00
00
ENDCHAR
STARTCHAR   b2
ENCODING 178
SWIDTH 480 0
DWIDTH 7 0
BBX 7 14 0 -2
BITMAP
00
06
06
0c
18
38
68
d8
18
18
18
18
00
00
ENDCHAR
STARTCHAR   b3
ENCODING 179
SWIDTH 480 0
DWIDTH 7 0
BBX 7 14 0 -2
BITMAP
00
30
30
fe
c6
c6
c6
0c
0c
18
30
60
00
00
ENDCHAR
STARTCHAR   b4
ENCODING 180
SWIDTH 480 0
DWIDTH 7 0
BBX 7 14 0 -2
BITMAP
00
00
00
fc
30
30
30
30
30
30
30
fe
00
00
ENDCHAR
STARTCHAR   b5
ENCODING 181
SWIDTH 480 0
DWIDTH 7 0
BBX 7 14 0 -2
BITMAP
00
0c
0c
0c
fe
1c
1c
34
34
6c
cc
1c
00
00
ENDCHAR
STARTCHAR   b6
ENCODING 182
SWIDTH 480 0
DWIDTH 7 0
BBX 7 14 0 -2
BITMAP
00
30
30
30
fe
36
36
36
36
66
66
dc
00
00
ENDCHAR
STARTCHAR   b7
ENCODING 183
SWIDTH 480 0
DWIDTH 7 0
BBX 7 14 0 -2
BITMAP
00
30
30
3c
f0
18
18
1e
f8
0c
0c
0c
00
00
ENDCHAR
STARTCHAR   b8
ENCODING 184
SWIDTH 480 0
DWIDTH 7 0
BBX 7 14 0 -2
BITMAP
00
30
30
3e
36
66
c6
0c
0c
18
30
60
00
00
ENDCHAR
STARTCHAR   b9
ENCODING 185
SWIDTH 480 0
DWIDTH 7 0
BBX 7 14 0 -2
BITMAP
00
60
60
60
7e
68
d8
d8
18
18
30
60
00
00
ENDCHAR
STARTCHAR   ba
ENCODING 186
SWIDTH 480 0
DWIDTH 7 0
BBX 7 14 0 -2
BITMAP
00
00
00
7e
06
06
06
06
06
06
7e
00
00
00
ENDCHAR
STARTCHAR   bb
ENCODING 187
SWIDTH 480 0
DWIDTH 7 0
BBX 7 14 0 -2
BITMAP
00
6c
6c
6c
fe
6c
6c
6c
0c
18
18
30
00
00
ENDCHAR
STARTCHAR   bc
ENCODING 188
SWIDTH 480 0
DWIDTH 7 0
BBX 7 14 0 -2
BITMAP
00
00
60
30
30
c6
66
6c
0c
18
30
e0
00
00
ENDCHAR
STARTCHAR   bd
ENCODING 189
SWIDTH 480 0
DWIDTH 7 0
BBX 7 14 0 -2
BITMAP
00
00
00
fc
0c
0c
0c
18
18
34
66
c6
00
00
ENDCHAR
STARTCHAR   be
ENCODING 190
SWIDTH 480 0
DWIDTH 7 0
BBX 7 14 0 -2
BITMAP
00
60
60
60
7e
e6
6c
68
60
60
60
3e
00
00
ENDCHAR
STARTCHAR   bf
ENCODING 191
SWIDTH 480 0
DWIDTH 7 0
BBX 7 14 0 -2
BITMAP
00
00
c6
66
66
66
06
0c
0c
18
30
60
00
00
ENDCHAR
STARTCHAR   c0
ENCODING 192
SWIDTH 480 0
DWIDTH 7 0
BBX 7 14 0 -2
BITMAP
00
30
30
3e
36
66
76
dc
0c
18
30
60
00
00
ENDCHAR
STARTCHAR   c1
ENCODING 193
SWIDTH 480 0
DWIDTH 7 0
BBX 7 14 0 -2
BITMAP
00
0e
78
18
18
fe
18
18
18
18
30
60
00
00
ENDCHAR
STARTCHAR   c2
ENCODING 194
SWIDTH 480 0
DWIDTH 7 0
BBX 7 14 0 -2
BITMAP
00
00
36
da
6a
66
06
06
0c
0c
18
30
00
00
ENDCHAR
STARTCHAR   c3
ENCODING 195
SWIDTH 480 0
DWIDTH 7 0
BBX 7 14 0 -2
BITMAP
00
00
7c
00
00
fe
18
18
18
18
30
60
00
00
ENDCHAR
STARTCHAR   c4
ENCODING 196
SWIDTH 480 0
DWIDTH 7 0
BBX 7 14 0 -2
BITMAP
00
60
60
60
60
70
68
6c
6c
60
60
60
00
00
ENDCHAR
STARTCHAR   c5
ENCODING 197
SWIDTH 480 0
DWIDTH 7 0
BBX 7 14 0 -2
BITMAP
00
18
18
18
18
fe
18
18
18
18
30
60
00
00
ENDCHAR
STARTCHAR   c6
ENCODING 198
SWIDTH 480 0
DWIDTH 7 0
BBX 7 14 0 -2
BITMAP
00
00
00
7c
00
00
00
00
00
00
fe
00
00
00
ENDCHAR
STARTCHAR   c7
ENCODING 199
SWIDTH 480 0
DWIDTH 7 0
BBX 7 14 0 -2
BITMAP
00
00
fe
06
06
6c
34
18
1c
36
66
c0
00
00
ENDCHAR
STARTCHAR   c8
ENCODING 200
SWIDTH 480 0
DWIDTH 7 0
BBX 7 14 0 -2
BITMAP
00
18
18
fe
06
0c
18
3c
6a
da
18
18
00
00
ENDCHAR
STARTCHAR   c9
ENCODING 201
SWIDTH 480 0
DWIDTH 7 0
BBX 7 14 0 -2
BITMAP
00
06
06
06
06
06
06
0c
0c
18
30
60
00
00
ENDCHAR
STARTCHAR   ca
ENCODING 202
SWIDTH 480 0
DWIDTH 7 0
BBX 7 14 0 -2
BITMAP
00
00
18
18
0c
6c
6c
66
66
66
c6
c6
00
00
ENDCHAR
STARTCHAR   cb
ENCODING 203
SWIDTH 480 0
DWIDTH 7 0
BBX 7 14 0 -2
BITMAP
00
60
60
60
66
6c
70
60
60
60
60
3e
00
00
ENDCHAR
STARTCHAR   cc
ENCODING 204
SWIDTH 480 0
DWIDTH 7 0
BBX 7 14 0 -2
BITMAP
00
00
fe
06
06
06
06
0c
0c
18
30
60
00
00
ENDCHAR
STARTCHAR   cd
ENCODING 205
SWIDTH 480 0
DWIDTH 7 0
BBX 7 14 0 -2
BITMAP
00
00
30
30
68
68
d8
cc
0c
06
06
00
00
00
ENDCHAR
STARTCHAR   ce
ENCODING 206
SWIDTH 480 0
DWIDTH 7 0
BBX 7 14 0 -2
BITMAP
00
30
30
30
fe
30
74
76
d6
d6
30
30
00
00
ENDCHAR
STARTCHAR   cf
ENCODING 207
SWIDTH 480 0
DWIDTH 7 0
BBX 7 14 0 -2
BITMAP
00
00
00
fe
06
06
6c
34
18
18
0c
0c
00
00
ENDCHAR
STARTCHAR   d0
ENCODING 208
SWIDTH 480 0
DWIDTH 7 0
BBX 7 14 0 -2
BITMAP
00
70
1c
00
00
70
1c
00
00
f0
1c
06
00
00
ENDCHAR
STARTCHAR   d1
ENCODING 209
SWIDTH 480 0
DWIDTH 7 0
BBX 7 14 0 -2
BITMAP
00
30
30
30
30
30
30
6c
6c
6c
f6
06
00
00
ENDCHAR
STARTCHAR   d2
ENCODING 210
SWIDTH 480 0
DWIDTH 7 0
BBX 7 14 0 -2
BITMAP
00
0c
0c
0c
6c
38
18
1c
36
36
60
c0
00
00
ENDCHAR
STARTCHAR   d3
ENCODING 211
SWIDTH 480 0
DWIDTH 7 0
BBX 7 14 0 -2
BITMAP
00
00
7c
30
30
30
fe
30
30
30
30
1e
00
00
ENDCHAR
STARTCHAR   d4
ENCODING 212
SWIDTH 480 0
DWIDTH 7 0
BBX 7 14 0 -2
BITMAP
00
60
60
60
3e
f6
34
30
18
18
18
18
00
00
ENDCHAR
STARTCHAR   d5
ENCODING 213
SWIDTH 480 0
DWIDTH 7 0
BBX 7 14 0 -2
BITMAP
00
00
7c
0c
0c
0c
0c
0c
0c
0c
ff
00
00
00
ENDCHAR
STARTCHAR   d6
ENCODING 214
SWIDTH 480 0
DWIDTH 7 0
BBX 7 14 0 -2
BITMAP
00
00
fe
06
06
06
7e
06
06
06
fe
00
00
00
ENDCHAR
STARTCHAR   d7
ENCODING 215
SWIDTH 480 0
DWIDTH 7 0
BBX 7 14 0 -2
BITMAP
00
00
7c
00
00
fe
06
06
0c
0c
18
30
00
00
ENDCHAR
STARTCHAR   d8
ENCODING 216
SWIDTH 480 0
DWIDTH 7 0
BBX 7 14 0 -2
BITMAP
00
06
66
66
66
66
66
66
0c
0c
18
30
00
00
ENDCHAR
STARTCHAR   d9
ENCODING 217
SWIDTH 480 0
DWIDTH 7 0
BBX 7 14 0 -2
BITMAP
00
18
18
68
68
68
68
6b
6a
6a
dc
d8
00
00
ENDCHAR
STARTCHAR   da
ENCODING 218
SWIDTH 480 0
DWIDTH 7 0
BBX 7 14 0 -2
BITMAP
00
00
60
60
60
60
66
66
6c
6c
68
70
00
00
ENDCHAR
STARTCHAR   db
ENCODING 219
SWIDTH 480 0
DWIDTH 7 0
BBX 7 14 0 -2
BITMAP
00
00
00
7e
66
66
66
66
66
66
7e
00
00
00
ENDCHAR
STARTCHAR   dc
ENCODING 220
SWIDTH 480 0
DWIDTH 7 0
BBX 7 14 0 -2
BITMAP
00
00
fe
c6
c6
c6
06
0c
0c
18
30
60
00
00
ENDCHAR
STARTCHAR   dd
ENCODING 221
SWIDTH 480 0
DWIDTH 7 0
BBX 7 14 0 -2
BITMAP
00
00
c0
60
60
06
06
0c
0c
18
30
e0
00
00
ENDCHAR
STARTCHAR   de
ENCODING 222
SWIDTH 480 0
DWIDTH 7 0
BBX 7 14 0 -2
BITMAP
00
d0
68
68
00
00
00
00
00
00
00
00
00
00
ENDCHAR
STARTCHAR   df
ENCODING 223
SWIDTH 480 0
DWIDTH 7 0
BBX 7 14 0 -2
BITMAP
00
70
d8
d8
70
00
00
00
00
00
00
00
00
00
ENDCHAR
STARTCHAR   e0
ENCODING 224
SWIDTH 480 0
DWIDTH 7 0
BBX 7 14 0 -2
BITMAP
00
00
00
00
00
00
00
00
00
00
00
00
00
00
ENDCHAR
STARTCHAR   e1
ENCODING 225
SWIDTH 480 0
DWIDTH 7 0
BBX 7 14 0 -2
BITMAP
00
00
00
00
00
00
00
00
00
00
00
00
00
00
ENDCHAR
STARTCHAR   e2
ENCODING 226
SWIDTH 480 0
DWIDTH 7 0
BBX 7 14 0 -2
BITMAP
00
00
00
00
00
00
00
00
00
00
00
00
00
00
ENDCHAR
STARTCHAR   e3
ENCODING 227
SWIDTH 480 0
DWIDTH 7 0
BBX 7 14 0 -2
BITMAP
00
00
00
00
00
00
00
00
00
00
00
00
00
00
ENDCHAR
STARTCHAR   e4
ENCODING 228
SWIDTH 480 0
DWIDTH 7 0
BBX 7 14 0 -2
BITMAP
00
00
00
00
00
00
00
00
00
00
00
00
00
00
ENDCHAR
STARTCHAR   e5
ENCODING 229
SWIDTH 480 0
DWIDTH 7 0
BBX 7 14 0 -2
BITMAP
00
00
00
00
00
00
00
00
00
00
00
00
00
00
ENDCHAR
STARTCHAR   e6
ENCODING 230
SWIDTH 480 0
DWIDTH 7 0
BBX 7 14 0 -2
BITMAP
00
00
00
00
00
00
00
00
00
00
00
00
00
00
ENDCHAR
STARTCHAR   e7
ENCODING 231
SWIDTH 480 0
DWIDTH 7 0
BBX 7 14 0 -2
BITMAP
00
00
00
00
00
00
00
00
00
00
00
00
00
00
ENDCHAR
STARTCHAR   e8
ENCODING 232
SWIDTH 480 0
DWIDTH 7 0
BBX 7 14 0 -2
BITMAP
00
00
00
00
00
00
00
00
00
00
00
00
00
00
ENDCHAR
STARTCHAR   e9
ENCODING 233
SWIDTH 480 0
DWIDTH 7 0
BBX 7 14 0 -2
BITMAP
00
00
00
00
00
00
00
00
00
00
00
00
00
00
ENDCHAR
STARTCHAR   ea
ENCODING 234
SWIDTH 480 0
DWIDTH 7 0
BBX 7 14 0 -2
BITMAP
00
00
00
00
00
00
00
00
00
00
00
00
00
00
ENDCHAR
STARTCHAR   eb
ENCODING 235
SWIDTH 480 0
DWIDTH 7 0
BBX 7 14 0 -2
BITMAP
00
00
00
00
00
00
00
00
00
00
00
00
00
00
ENDCHAR
STARTCHAR   ec
ENCODING 236
SWIDTH 480 0
DWIDTH 7 0
BBX 7 14 0 -2
BITMAP
00
00
00
00
00
00
00
00
00
00
00
00
00
00
ENDCHAR
STARTCHAR   ed
ENCODING 237
SWIDTH 480 0
DWIDTH 7 0
BBX 7 14 0 -2
BITMAP
00
00
00
00
00
00
00
00
00
00
00
00
00
00
ENDCHAR
STARTCHAR   ee
ENCODING 238
SWIDTH 480 0
DWIDTH 7 0
BBX 7 14 0 -2
BITMAP
00
00
00
00
00
00
00
00
00
00
00
00
00
00
ENDCHAR
STARTCHAR   ef
ENCODING 239
SWIDTH 480 0
DWIDTH 7 0
BBX 7 14 0 -2
BITMAP
00
00
00
00
00
00
00
00
00
00
00
00
00
00
ENDCHAR
STARTCHAR   f0
ENCODING 240
SWIDTH 480 0
DWIDTH 7 0
BBX 7 14 0 -2
BITMAP
00
00
00
00
00
00
00
00
00
00
00
00
00
00
ENDCHAR
STARTCHAR   f1
ENCODING 241
SWIDTH 480 0
DWIDTH 7 0
BBX 7 14 0 -2
BITMAP
00
00
00
00
00
00
00
00
00
00
00
00
00
00
ENDCHAR
STARTCHAR   f2
ENCODING 242
SWIDTH 480 0
DWIDTH 7 0
BBX 7 14 0 -2
BITMAP
00
00
00
00
00
00
00
00
00
00
00
00
00
00
ENDCHAR
STARTCHAR   f3
ENCODING 243
SWIDTH 480 0
DWIDTH 7 0
BBX 7 14 0 -2
BITMAP
00
00
00
00
00
00
00
00
00
00
00
00
00
00
ENDCHAR
STARTCHAR   f4
ENCODING 244
SWIDTH 480 0
DWIDTH 7 0
BBX 7 14 0 -2
BITMAP
00
00
00
00
00
00
00
00
00
00
00
00
00
00
ENDCHAR
STARTCHAR   f5
ENCODING 245
SWIDTH 480 0
DWIDTH 7 0
BBX 7 14 0 -2
BITMAP
00
00
00
00
00
00
00
00
00
00
00
00
00
00
ENDCHAR
STARTCHAR   f6
ENCODING 246
SWIDTH 480 0
DWIDTH 7 0
BBX 7 14 0 -2
BITMAP
00
00
00
00
00
00
00
00
00
00
00
00
00
00
ENDCHAR
STARTCHAR   f7
ENCODING 247
SWIDTH 480 0
DWIDTH 7 0
BBX 7 14 0 -2
BITMAP
00
00
00
00
00
00
00
00
00
00
00
00
00
00
ENDCHAR
STARTCHAR   f8
ENCODING 248
SWIDTH 480 0
DWIDTH 7 0
BBX 7 14 0 -2
BITMAP
00
00
00
00
00
00
00
00
00
00
00
00
00
00
ENDCHAR
STARTCHAR   f9
ENCODING 249
SWIDTH 480 0
DWIDTH 7 0
BBX 7 14 0 -2
BITMAP
00
00
00
00
00
00
00
00
00
00
00
00
00
00
ENDCHAR
STARTCHAR   fa
ENCODING 250
SWIDTH 480 0
DWIDTH 7 0
BBX 7 14 0 -2
BITMAP
00
00
00
00
00
00
00
00
00
00
00
00
00
00
ENDCHAR
STARTCHAR   fb
ENCODING 251
SWIDTH 480 0
DWIDTH 7 0
BBX 7 14 0 -2
BITMAP
00
00
00
00
00
00
00
00
00
00
00
00
00
00
ENDCHAR
STARTCHAR   fc
ENCODING 252
SWIDTH 480 0
DWIDTH 7 0
BBX 7 14 0 -2
BITMAP
00
00
00
00
00
00
00
00
00
00
00
00
00
00
ENDCHAR
STARTCHAR   fd
ENCODING 253
SWIDTH 480 0
DWIDTH 7 0
BBX 7 14 0 -2
BITMAP
00
00
00
00
00
00
00
00
00
00
00
00
00
00
ENDCHAR
STARTCHAR   fe
ENCODING 254
SWIDTH 480 0
DWIDTH 7 0
BBX 7 14 0 -2
BITMAP
00
00
00
00
00
00
00
00
00
00
00
00
00
00
ENDCHAR
STARTCHAR   ff
ENCODING 255
SWIDTH 480 0
DWIDTH 7 0
BBX 7 14 0 -2
BITMAP
00
00
00
00
00
00
00
00
00
00
00
00
00
00
ENDCHAR
ENDFONT
